<svg xmlns="http://www.w3.org/2000/svg" version="1.1" xmlns:xlink="http://www.w3.org/1999/xlink" xmlns:svgjs="http://svgjs.dev/svgjs" width="1000" height="158" viewBox="0 0 1000 158"><g transform="matrix(1,0,0,1,-0.13354896453097354,0.44798448275858505)"><svg viewBox="0 0 365 58" data-background-color="#ffffff" preserveAspectRatio="xMidYMid meet" height="158" width="1000" xmlns="http://www.w3.org/2000/svg" xmlns:xlink="http://www.w3.org/1999/xlink"><g id="tight-bounds" transform="matrix(1,0,0,1,0.04874537205381557,-0.164449999999988)"><svg viewBox="0 0 364.90250925589237 58.32889999999999" height="58.32889999999999" width="364.90250925589237"><g><svg viewBox="0 0 364.90250925589237 58.32889999999999" height="58.32889999999999" width="364.90250925589237"><g><svg viewBox="0 0 364.90250925589237 58.32889999999999" height="58.32889999999999" width="364.90250925589237"><g id="textblocktransform"><svg viewBox="0 0 364.90250925589237 58.32889999999999" height="58.32889999999999" width="364.90250925589237" id="textblock"><g><svg viewBox="0 0 364.90250925589237 58.32889999999999" height="58.32889999999999" width="364.90250925589237"><g><svg><g></g><g></g></svg></g><g><svg><g></g><g><svg></svg></g></svg></g><g id="text-0"><svg viewBox="0 0 364.90250925589237 58.32889999999999" height="58.32889999999999" width="364.90250925589237"><g transform="matrix(1,0,0,1,0,11.139449999999997)"><svg width="143.8" viewBox="2.1 -35.75 143.79 36.05" height="36.05" data-palette-color="#000000"><path d="M18.75 0.25L18.75 0.25Q15 0.25 11.95-1.25 8.9-2.75 6.7-5.33 4.5-7.9 3.3-11.13 2.1-14.35 2.1-17.75L2.1-17.75Q2.1-21.3 3.35-24.53 4.6-27.75 6.88-30.28 9.15-32.8 12.2-34.27 15.25-35.75 18.8-35.75L18.8-35.75Q22.55-35.75 25.6-34.2 28.65-32.65 30.83-30.05 33-27.45 34.2-24.25 35.4-21.05 35.4-17.7L35.4-17.7Q35.4-14.15 34.15-10.93 32.9-7.7 30.65-5.18 28.4-2.65 25.35-1.2 22.3 0.25 18.75 0.25ZM5.6-17.75L5.6-17.75Q5.6-14.85 6.55-12.18 7.5-9.5 9.25-7.43 11-5.35 13.43-4.13 15.85-2.9 18.75-2.9L18.75-2.9Q21.8-2.9 24.23-4.17 26.65-5.45 28.38-7.58 30.1-9.7 31-12.35 31.9-15 31.9-17.75L31.9-17.75Q31.9-20.65 30.95-23.3 30-25.95 28.23-28.05 26.45-30.15 24.05-31.35 21.65-32.55 18.75-32.55L18.75-32.55Q15.75-32.55 13.33-31.3 10.9-30.05 9.18-27.93 7.45-25.8 6.53-23.15 5.6-20.5 5.6-17.75ZM64.45-31.65L62.75-28.85Q62-29.7 61-30.38 60-31.05 58.75-31.55 57.5-32.05 56.07-32.35 54.65-32.65 53.05-32.65L53.05-32.65Q48.4-32.65 46.22-30.88 44.05-29.1 44.05-26.05L44.05-26.05Q44.05-23.95 45.07-22.75 46.1-21.55 48.3-20.8 50.5-20.05 53.9-19.25L53.9-19.25Q57.7-18.45 60.45-17.35 63.2-16.25 64.7-14.38 66.2-12.5 66.2-9.3L66.2-9.3Q66.2-6.85 65.25-5.05 64.3-3.25 62.6-2.05 60.9-0.85 58.55-0.28 56.2 0.3 53.4 0.3L53.4 0.3Q50.65 0.3 48.12-0.28 45.6-0.85 43.35-1.98 41.1-3.1 39.15-4.85L39.15-4.85 40.9-7.7Q41.85-6.7 43.17-5.83 44.5-4.95 46.12-4.25 47.75-3.55 49.62-3.18 51.5-2.8 53.5-2.8L53.5-2.8Q57.75-2.8 60.12-4.35 62.5-5.9 62.5-8.95L62.5-8.95Q62.5-11.15 61.3-12.48 60.1-13.8 57.7-14.65 55.3-15.5 51.8-16.3L51.8-16.3Q48.1-17.15 45.55-18.2 43-19.25 41.72-20.98 40.45-22.7 40.45-25.55L40.45-25.55Q40.45-28.85 42.07-31.13 43.7-33.4 46.55-34.58 49.4-35.75 53.1-35.75L53.1-35.75Q55.45-35.75 57.47-35.27 59.5-34.8 61.22-33.9 62.95-33 64.45-31.65L64.45-31.65ZM75.85 0L72.35 0 72.35-35.5 75.85-35.5 75.85 0ZM81.09-35.5L84.94-35.5 96.54-16.4 108.24-35.5 112.04-35.5 98.29-13.2 98.29 0 94.79 0 94.79-13.3 81.09-35.5ZM129.24 0.25L129.24 0.25Q125.49 0.25 122.44-1.25 119.39-2.75 117.19-5.33 114.99-7.9 113.79-11.13 112.59-14.35 112.59-17.75L112.59-17.75Q112.59-21.3 113.84-24.53 115.09-27.75 117.37-30.28 119.64-32.8 122.69-34.27 125.74-35.75 129.29-35.75L129.29-35.75Q133.04-35.75 136.09-34.2 139.14-32.65 141.32-30.05 143.49-27.45 144.69-24.25 145.89-21.05 145.89-17.7L145.89-17.7Q145.89-14.15 144.64-10.93 143.39-7.7 141.14-5.18 138.89-2.65 135.84-1.2 132.79 0.25 129.24 0.25ZM116.09-17.75L116.09-17.75Q116.09-14.85 117.04-12.18 117.99-9.5 119.74-7.43 121.49-5.35 123.92-4.13 126.34-2.9 129.24-2.9L129.24-2.9Q132.29-2.9 134.72-4.17 137.14-5.45 138.87-7.58 140.59-9.7 141.49-12.35 142.39-15 142.39-17.75L142.39-17.75Q142.39-20.65 141.44-23.3 140.49-25.95 138.72-28.05 136.94-30.15 134.54-31.35 132.14-32.55 129.24-32.55L129.24-32.55Q126.24-32.55 123.82-31.3 121.39-30.05 119.67-27.93 117.94-25.8 117.02-23.15 116.09-20.5 116.09-17.75Z" opacity="1" transform="matrix(1,0,0,1,0,0)" fill="#000000" class="undefined-lv-0"></path></svg></g><g><svg xmlns="http://www.w3.org/2000/svg" xmlns:xlink="http://www.w3.org/1999/xlink" version="1.1" x="157.5711" y="0" viewBox="5 13.999999387691169 90.00024381356637 72.00100061230884" enable-background="new 0 0 100 100" xml:space="preserve" height="58.32889999999999" width="72.91030925589232" class="icon-z$-0" data-fill-palette-color="accent" id="z$-0"></svg></g><g transform="matrix(1,0,0,1,244.2525092558923,11.139449999999997)"><svg width="120.65" viewBox="4.45 -35.75 120.64 36.05" height="36.05" data-palette-color="#000000"><path d="M7.95 0L4.45 0 4.45-35.5 19.15-35.5Q21.45-35.5 23.38-34.55 25.3-33.6 26.7-31.98 28.1-30.35 28.9-28.38 29.7-26.4 29.7-24.35L29.7-24.35Q29.7-21.45 28.43-18.88 27.15-16.3 24.85-14.7 22.55-13.1 19.45-13.1L19.45-13.1 7.95-13.1 7.95 0ZM7.95-32.4L7.95-16.2 19.3-16.2Q21.4-16.2 22.95-17.35 24.5-18.5 25.35-20.35 26.2-22.2 26.2-24.35L26.2-24.35Q26.2-26.55 25.2-28.4 24.2-30.25 22.58-31.33 20.95-32.4 19-32.4L19-32.4 7.95-32.4ZM59.55 0L35.55 0 35.55-35.5 39.05-35.5 39.05-3.1 59.55-3.1 59.55 0ZM77.6 0.25L77.6 0.25Q73.4 0.25 70.5-1.25 67.6-2.75 65.9-5.28 64.2-7.8 63.42-11 62.65-14.2 62.65-17.6L62.65-17.6 62.65-35.5 66.1-35.5 66.1-17.6Q66.1-14.85 66.67-12.2 67.25-9.55 68.55-7.45 69.85-5.35 72.05-4.13 74.25-2.9 77.55-2.9L77.55-2.9Q80.95-2.9 83.17-4.17 85.4-5.45 86.67-7.55 87.95-9.65 88.5-12.28 89.05-14.9 89.05-17.6L89.05-17.6 89.05-35.5 92.55-35.5 92.55-17.6Q92.55-14.05 91.75-10.8 90.95-7.55 89.17-5.1 87.4-2.65 84.55-1.2 81.7 0.25 77.6 0.25ZM123.34-31.65L121.64-28.85Q120.89-29.7 119.89-30.38 118.89-31.05 117.64-31.55 116.39-32.05 114.97-32.35 113.54-32.65 111.94-32.65L111.94-32.65Q107.29-32.65 105.12-30.88 102.94-29.1 102.94-26.05L102.94-26.05Q102.94-23.95 103.97-22.75 104.99-21.55 107.19-20.8 109.39-20.05 112.79-19.25L112.79-19.25Q116.59-18.45 119.34-17.35 122.09-16.25 123.59-14.38 125.09-12.5 125.09-9.3L125.09-9.3Q125.09-6.85 124.14-5.05 123.19-3.25 121.49-2.05 119.79-0.85 117.44-0.28 115.09 0.3 112.29 0.3L112.29 0.3Q109.54 0.3 107.02-0.28 104.49-0.85 102.24-1.98 99.99-3.1 98.04-4.85L98.04-4.85 99.79-7.7Q100.74-6.7 102.07-5.83 103.39-4.95 105.02-4.25 106.64-3.55 108.52-3.18 110.39-2.8 112.39-2.8L112.39-2.8Q116.64-2.8 119.02-4.35 121.39-5.9 121.39-8.95L121.39-8.95Q121.39-11.15 120.19-12.48 118.99-13.8 116.59-14.65 114.19-15.5 110.69-16.3L110.69-16.3Q106.99-17.15 104.44-18.2 101.89-19.25 100.62-20.98 99.34-22.7 99.34-25.55L99.34-25.55Q99.34-28.85 100.97-31.13 102.59-33.4 105.44-34.58 108.29-35.75 111.99-35.75L111.99-35.75Q114.34-35.75 116.37-35.27 118.39-34.8 120.12-33.9 121.84-33 123.34-31.65L123.34-31.65Z" opacity="1" transform="matrix(1,0,0,1,0,0)" fill="#000000" class="undefined-lv-1"></path></svg></g></svg></g></svg></g></svg></g></svg></g></svg></g><defs></defs><mask id="32c094af-2261-4618-967e-d86000b8f801"><g id="SvgjsG1054"><svg viewBox="0 0 364.90250925589237 58.32889999999999" height="58.32889999999999" width="364.90250925589237"><g><svg viewBox="0 0 364.90250925589237 58.32889999999999" height="58.32889999999999" width="364.90250925589237"><g><svg viewBox="0 0 364.90250925589237 58.32889999999999" height="58.32889999999999" width="364.90250925589237"><g id="SvgjsG1053"><svg viewBox="0 0 364.90250925589237 58.32889999999999" height="58.32889999999999" width="364.90250925589237" id="SvgjsSvg1052"><g><svg viewBox="0 0 364.90250925589237 58.32889999999999" height="58.32889999999999" width="364.90250925589237"><g><svg><g></g><g></g></svg></g><g><svg><g></g><g><svg></svg></g></svg></g><g id="SvgjsG1051"><svg viewBox="0 0 364.90250925589237 58.32889999999999" height="58.32889999999999" width="364.90250925589237"><g transform="matrix(1,0,0,1,0,11.139449999999997)"><svg width="143.8" viewBox="2.1 -35.75 143.79 36.05" height="36.05" data-palette-color="#000000"></svg></g><g><svg xmlns="http://www.w3.org/2000/svg" xmlns:xlink="http://www.w3.org/1999/xlink" version="1.1" x="157.5711" y="0" viewBox="5 13.999999387691169 90.00024381356637 72.00100061230884" enable-background="new 0 0 100 100" xml:space="preserve" height="58.32889999999999" width="72.91030925589232" class="icon-z$-0" data-fill-palette-color="accent" id="SvgjsSvg1050"><path fill="white" d="M78.58 58.995c0.994-0.058 1.878-0.651 2.308-1.55l13.846-28.968c0.403-0.845 0.346-1.84-0.154-2.634-0.501-0.794-1.372-1.277-2.312-1.277H26.826l-3.031-8.73c-0.383-1.1-1.418-1.836-2.581-1.836H7.732C6.224 13.999 5 15.223 5 16.732s1.224 2.733 2.732 2.733h11.538l17.778 51.196h-9.276v0.13c-4.202 0-7.605 3.405-7.605 7.605s3.403 7.605 7.605 7.605c4.199 0 7.604-3.405 7.604-7.605 0-0.796-0.155-1.548-0.384-2.27h5.891c0.002 0 0.004 0 0.006 0s0.005 0 0.007 0h36.498c-0.229 0.722-0.384 1.473-0.384 2.27 0 4.2 3.403 7.605 7.604 7.605 4.202 0 7.605-3.405 7.605-7.605s-3.403-7.605-7.605-7.605v-0.13H42.833l-3.261-9.394L78.58 58.995zM87.934 30.031L76.651 53.632l-38.942 2.267-8.984-25.868H87.934z"></path></svg></g><g transform="matrix(1,0,0,1,244.2525092558923,11.139449999999997)"><svg width="120.65" viewBox="4.45 -35.75 120.64 36.05" height="36.05" data-palette-color="#000000"></svg></g></svg></g></svg></g></svg></g></svg></g></svg></g><defs><mask></mask></defs></svg></g></mask><linearGradient x1="0" x2="1" y1="0.578" y2="0.595" id="6b2da2eb-d3fd-4d9d-abf9-3116f10308d8"><stop stop-color="#6ee2f5" offset="0"></stop><stop stop-color="#6454f0" offset="1"></stop></linearGradient><rect width="364.90250925589237" height="58.32889999999999" fill="url(#6b2da2eb-d3fd-4d9d-abf9-3116f10308d8)" mask="url(#32c094af-2261-4618-967e-d86000b8f801)" data-fill-palette-color="accent"></rect></svg><rect width="364.90250925589237" height="58.32889999999999" fill="none" stroke="none" visibility="hidden"></rect></g></svg></g></svg>